<?xml version="1.0" encoding="UTF-8"?>
<svg xmlns="http://www.w3.org/2000/svg" xmlns:xlink="http://www.w3.org/1999/xlink" width="48pt" height="48pt" viewBox="0 0 48 48" version="1.1">
<g id="surface1">
<path style=" stroke:none;fill-rule:nonzero;fill:#EDE7F6;fill-opacity:1;" d="M 44 24 C 44 35.046875 35.046875 44 24 44 C 12.953125 44 4 35.046875 4 24 C 4 12.953125 12.953125 4 24 4 C 35.046875 4 44 12.953125 44 24 Z "/>
<path style=" stroke:none;fill-rule:nonzero;fill:#673AB7;fill-opacity:1;" d="M 24 44 C 28.5 44 32.601563 42.5 35.898438 40 C 35.300781 32.398438 27.699219 31 27.699219 31 L 24 31.800781 L 20.300781 31 C 20.300781 31 12.699219 32.398438 12.101563 40 C 15.398438 42.5 19.5 44 24 44 Z "/>
<path style=" stroke:none;fill-rule:nonzero;fill:#311B92;fill-opacity:1;" d="M 24 37 C 27.101563 37 29.601563 34.699219 29.898438 31.699219 C 29 31.300781 28.300781 31.101563 27.898438 31 C 27.898438 33.199219 26.101563 34.898438 23.898438 34.898438 C 21.699219 34.898438 19.898438 33.101563 19.898438 31 C 19.5 31.101563 18.800781 31.300781 17.898438 31.699219 C 18.398438 34.699219 20.898438 37 24 37 Z "/>
<path style=" stroke:none;fill-rule:nonzero;fill:#FFA726;fill-opacity:1;" d="M 32 22.5 C 32 23.300781 31.300781 24 30.5 24 C 29.699219 24 29 23.300781 29 22.5 C 29 21.699219 29.699219 21 30.5 21 C 31.300781 21 32 21.699219 32 22.5 M 19 22.5 C 19 21.699219 18.300781 21 17.5 21 C 16.699219 21 16 21.699219 16 22.5 C 16 23.300781 16.699219 24 17.5 24 C 18.300781 24 19 23.300781 19 22.5 "/>
<path style=" stroke:none;fill-rule:nonzero;fill:#FF9800;fill-opacity:1;" d="M 24 35 C 20 35 20 31 20 31 L 20 27 L 28 27 L 28 31 C 28 31 28 35 24 35 Z "/>
<path style=" stroke:none;fill-rule:nonzero;fill:#FFB74D;fill-opacity:1;" d="M 31 18.699219 C 31 12.800781 17 14.898438 17 18.699219 L 17 23.101563 C 17 26.898438 20.101563 30 24 30 C 27.898438 30 31 26.898438 31 23.101563 Z "/>
<path style=" stroke:none;fill-rule:nonzero;fill:#424242;fill-opacity:1;" d="M 24 11 C 19.101563 11 16 15.300781 16 19.199219 L 16 21 L 18 23 L 18 19 L 27.199219 16 L 30 19 L 30 23 L 32 21 L 32 20.199219 C 32 17 31.199219 13.398438 27.199219 12.601563 L 26.398438 11 Z "/>
<path style=" stroke:none;fill-rule:nonzero;fill:#784719;fill-opacity:1;" d="M 26 22 C 26 21.398438 26.398438 21 27 21 C 27.601563 21 28 21.398438 28 22 C 28 22.601563 27.601563 23 27 23 C 26.398438 23 26 22.601563 26 22 M 20 22 C 20 22.601563 20.398438 23 21 23 C 21.601563 23 22 22.601563 22 22 C 22 21.398438 21.601563 21 21 21 C 20.398438 21 20 21.398438 20 22 "/>
</g>
</svg>
