<?xml version="1.0" encoding="UTF-8"?>
<svg xmlns="http://www.w3.org/2000/svg" xmlns:xlink="http://www.w3.org/1999/xlink" width="48pt" height="48pt" viewBox="0 0 48 48" version="1.1">
<g id="surface1">
<path style=" stroke:none;fill-rule:nonzero;fill:#EEEEEE;fill-opacity:1;" d="M 40 8 L 8 8 C 6.34375 8 5 9.34375 5 11 L 5 37 C 5 38.65625 6.34375 40 8 40 L 40 40 C 41.65625 40 43 38.65625 43 37 L 43 11 C 43 9.34375 41.65625 8 40 8 Z "/>
<path style=" stroke:none;fill-rule:nonzero;fill:#29B6F6;fill-opacity:1;" d="M 38 13 L 10 13 L 10 35 L 38 35 Z "/>
<path style=" stroke:none;fill-rule:nonzero;fill:#4FC3F7;fill-opacity:1;" d="M 38 35 L 38 18.128906 C 37.679688 18.039063 37.351563 18 37 18 C 36.601563 18 36.210938 18.078125 35.839844 18.191406 C 35.570313 17.921875 35.269531 17.691406 34.929688 17.5 C 34.359375 17.179688 33.699219 17 33 17 C 32.289063 17 31.628906 17.179688 31.058594 17.511719 C 30.449219 17.851563 29.941406 18.359375 29.578125 18.960938 C 28.878906 18.371094 27.988281 18 27 18 C 26.5 18 26.03125 18.101563 25.589844 18.269531 C 24.941406 16.929688 23.589844 16 22 16 C 20.539063 16 19.269531 16.789063 18.578125 17.960938 C 17.878906 17.371094 16.988281 17 16 17 C 15.308594 17 14.671875 17.191406 14.101563 17.5 C 13.371094 16.589844 12.261719 16 11 16 C 10.648438 16 10.320313 16.039063 10 16.128906 L 10 35 Z "/>
<path style=" stroke:none;fill-rule:nonzero;fill:#81D4FA;fill-opacity:1;" d="M 38 35 L 10 35 L 10 22.351563 C 10.449219 22.121094 10.960938 22 11.5 22 C 11.929688 22 12.351563 22.078125 12.730469 22.230469 C 13.019531 22.339844 13.28125 22.480469 13.53125 22.660156 C 13.53125 22.660156 13.808594 22.949219 14.21875 23.320313 C 14.589844 22.28125 15.441406 21.460938 16.5 21.140625 C 16.820313 21.050781 17.148438 21 17.5 21 C 18.679688 21 19.71875 21.589844 20.351563 22.5 C 20.828125 22.179688 21.390625 22 22 22 C 22.410156 22 22.789063 22.078125 23.140625 22.230469 C 23.871094 21.46875 24.871094 21 26 21 C 27.390625 21 28.609375 21.710938 29.320313 22.78125 C 29.921875 22.289063 30.671875 22 31.5 22 C 32.480469 22 33.359375 22.398438 34 23.050781 C 34.160156 23.03125 34.328125 23 34.5 23 C 34.96875 23 35.421875 23.101563 35.828125 23.261719 C 36.371094 22.621094 37.128906 22.160156 38 22.039063 Z "/>
<path style=" stroke:none;fill-rule:nonzero;fill:#66BB6A;fill-opacity:1;" d="M 38 35 L 28 35 L 33.890625 26.578125 C 34.429688 25.808594 35.570313 25.808594 36.109375 26.578125 L 38 29.28125 Z "/>
<path style=" stroke:none;fill-rule:nonzero;fill:#4CAF50;fill-opacity:1;" d="M 34.398438 35 L 17.601563 35 L 24.890625 24.578125 C 25.429688 23.808594 26.570313 23.808594 27.109375 24.578125 Z "/>
<path style=" stroke:none;fill-rule:nonzero;fill:#43A047;fill-opacity:1;" d="M 26.199219 35 L 10 35 L 10 26.140625 L 13.890625 20.578125 C 14.429688 19.808594 15.570313 19.808594 16.109375 20.578125 Z "/>
<path style=" stroke:none;fill-rule:nonzero;fill:#FFF176;fill-opacity:1;" d="M 35 18 C 35 19.105469 34.105469 20 33 20 C 31.894531 20 31 19.105469 31 18 C 31 16.894531 31.894531 16 33 16 C 34.105469 16 35 16.894531 35 18 Z "/>
<path style=" stroke:none;fill-rule:nonzero;fill:#546E7A;fill-opacity:1;" d="M 40 9 C 41.101563 9 42 9.898438 42 11 L 42 37 C 42 38.101563 41.101563 39 40 39 L 8 39 C 6.898438 39 6 38.101563 6 37 L 6 11 C 6 9.898438 6.898438 9 8 9 L 40 9 M 40 7 L 8 7 C 5.800781 7 4 8.800781 4 11 L 4 37 C 4 39.199219 5.800781 41 8 41 L 40 41 C 42.199219 41 44 39.199219 44 37 L 44 11 C 44 8.800781 42.199219 7 40 7 Z "/>
</g>
</svg>
