<?xml version="1.0" encoding="UTF-8"?>
<svg xmlns="http://www.w3.org/2000/svg" xmlns:xlink="http://www.w3.org/1999/xlink" width="48pt" height="48pt" viewBox="0 0 48 48" version="1.1">
<g id="surface1">
<path style=" stroke:none;fill-rule:nonzero;fill:#FF1744;fill-opacity:1;" d="M 28.902344 7.058594 C 24.550781 11.613281 22 17.632813 22 24 C 22 30.367188 24.550781 36.386719 28.902344 40.941406 C 20.011719 40.214844 13 32.894531 13 24 C 13 15.105469 20.011719 7.785156 28.902344 7.058594 M 30.355469 3 C 18.5625 3 9 12.402344 9 24 C 9 35.597656 18.5625 45 30.355469 45 C 33.433594 45 36.355469 44.347656 39 43.191406 C 31.515625 39.929688 26 32.570313 26 24 C 26 15.429688 31.515625 8.070313 39 4.808594 C 36.355469 3.652344 33.433594 3 30.355469 3 Z "/>
</g>
</svg>
