<?xml version="1.0" encoding="UTF-8"?>
<svg xmlns="http://www.w3.org/2000/svg" xmlns:xlink="http://www.w3.org/1999/xlink" width="480pt" height="480pt" viewBox="0 0 480 480" version="1.1">
<g id="surface1">
<path style=" stroke:none;fill-rule:nonzero;fill:#4FC3F7;fill-opacity:1;" d="M 290 310 C 290 310 280 350 240 350 C 200 350 190 310 190 310 C 190 310 80 329.859375 80 440 L 400 440 C 400 330.25 290 310 290 310 "/>
<path style=" stroke:none;fill-rule:nonzero;fill:#FF9800;fill-opacity:1;" d="M 240 370 C 190 370 190 310 190 310 L 190 250 L 290 250 L 290 310 C 290 310 290 370 240 370 Z "/>
<path style=" stroke:none;fill-rule:nonzero;fill:#FFA726;fill-opacity:1;" d="M 350 190 C 350 201.050781 341.050781 210 330 210 C 318.949219 210 310 201.050781 310 190 C 310 178.949219 318.949219 170 330 170 C 341.050781 170 350 178.949219 350 190 "/>
<path style=" stroke:none;fill-rule:nonzero;fill:#FFA726;fill-opacity:1;" d="M 170 190 C 170 201.050781 161.050781 210 150 210 C 138.949219 210 130 201.050781 130 190 C 130 178.949219 138.949219 170 150 170 C 161.050781 170 170 178.949219 170 190 "/>
<path style=" stroke:none;fill-rule:nonzero;fill:#FFB74D;fill-opacity:1;" d="M 330 130 C 330 53.648438 150 80.289063 150 130 L 150 200 C 150 249.710938 190.289063 290 240 290 C 289.710938 290 330 249.710938 330 200 Z "/>
<path style=" stroke:none;fill-rule:nonzero;fill:#424242;fill-opacity:1;" d="M 240 40 C 179.25 40 140 89.25 140 150 L 140 172.839844 L 160 190 L 160 140 L 280 100 L 320 140 L 320 190 L 340 172.589844 L 340 150 C 340 109.75 329.621094 69.851563 280 60 L 270 40 Z "/>
<path style=" stroke:none;fill-rule:nonzero;fill:#784719;fill-opacity:1;" d="M 270 190 C 270 195.519531 274.480469 200 280 200 C 285.519531 200 290 195.519531 290 190 C 290 184.480469 285.519531 180 280 180 C 274.480469 180 270 184.480469 270 190 "/>
<path style=" stroke:none;fill-rule:nonzero;fill:#784719;fill-opacity:1;" d="M 190 190 C 190 195.519531 194.480469 200 200 200 C 205.519531 200 210 195.519531 210 190 C 210 184.480469 205.519531 180 200 180 C 194.480469 180 190 184.480469 190 190 "/>
<path style=" stroke:none;fill-rule:nonzero;fill:#01579B;fill-opacity:1;" d="M 240 370 C 290 370 307.449219 330.699219 309.511719 315.71875 C 297.941406 311.480469 290 310 290 310 C 290 310 280 350 240 350 C 200 350 190 310 190 310 C 190 310 182.058594 311.460938 170.480469 315.660156 C 172.519531 330.609375 190 370 240 370 Z "/>
</g>
</svg>
